<?xml version="1.0" standalone="no"?>
<!DOCTYPE svg PUBLIC "-//W3C//DTD SVG 20010904//EN"
 "http://www.w3.org/TR/2001/REC-SVG-20010904/DTD/svg10.dtd">
<svg version="1.0" xmlns="http://www.w3.org/2000/svg"
 width="32.000000pt" height="32.000000pt" viewBox="0 0 32.000000 32.000000"
 preserveAspectRatio="xMidYMid meet">

<g transform="translate(0.000000,32.000000) scale(0.100000,-0.100000)"
fill="#000000" stroke="none">
<path d="M77 299 c-70 -41 -68 -241 3 -279 17 -9 16 -6 -5 32 -35 60 -35 156
0 216 13 23 23 42 22 42 -1 0 -10 -5 -20 -11z"/>
<path d="M96 258 c-17 -33 -26 -68 -26 -97 0 -49 32 -131 50 -131 7 0 8 6 1
19 -36 67 -32 177 10 234 15 21 16 27 5 27 -8 0 -26 -23 -40 -52z"/>
<path d="M170 300 c0 -5 -7 -10 -15 -10 -8 0 -14 -3 -13 -7 1 -5 -4 -25 -11
-47 -16 -45 -11 -151 8 -169 11 -10 12 -1 6 49 -8 69 5 129 36 168 17 22 18
26 5 26 -9 0 -16 -4 -16 -10z"/>
<path d="M245 268 c35 -60 35 -156 0 -216 -21 -38 -22 -41 -5 -32 72 39 72
241 0 280 -17 9 -16 6 5 -32z"/>
<path d="M199 271 c36 -67 32 -177 -10 -234 -15 -21 -16 -27 -5 -27 23 0 66
98 66 149 0 49 -32 131 -50 131 -7 0 -8 -6 -1 -19z"/>
<path d="M175 204 c8 -69 -5 -129 -36 -168 -17 -22 -18 -26 -5 -26 9 0 16 5
16 10 0 6 7 10 15 10 8 0 14 3 13 8 -1 4 4 24 11 46 16 45 11 151 -8 169 -11
10 -12 1 -6 -49z"/>
</g>
</svg>
